<?xml version="1.0" encoding="UTF-8"?>
<svg xmlns="http://www.w3.org/2000/svg" xmlns:xlink="http://www.w3.org/1999/xlink" viewBox="0 0 64 64" width="64px" height="64px">
<g id="surface17782476">
<path style=" stroke:none;fill-rule:nonzero;fill:rgb(100%,100%,100%);fill-opacity:1;" d="M 32 64 C 14.328125 64 0 49.671875 0 32 C 0 14.328125 14.328125 0 32 0 C 49.671875 0 64 14.328125 64 32 C 64 49.671875 49.671875 64 32 64 Z M 32 64 "/>
<path style=" stroke:none;fill-rule:nonzero;fill:rgb(100%,100%,100%);fill-opacity:1;" d="M 19.269531 14.578125 C 16.683594 14.578125 14.578125 16.683594 14.578125 19.269531 L 14.578125 44.730469 C 14.578125 47.316406 16.683594 49.421875 19.269531 49.421875 L 44.730469 49.421875 C 47.316406 49.421875 49.421875 47.316406 49.421875 44.730469 L 49.421875 19.269531 C 49.421875 16.683594 47.316406 14.578125 44.730469 14.578125 Z M 19.269531 15.921875 L 44.730469 15.921875 C 46.578125 15.921875 48.078125 17.421875 48.078125 19.269531 L 48.078125 44.730469 C 48.078125 46.578125 46.578125 48.078125 44.730469 48.078125 L 19.269531 48.078125 C 17.421875 48.078125 15.921875 46.578125 15.921875 44.730469 L 15.921875 19.269531 C 15.921875 17.421875 17.421875 15.921875 19.269531 15.921875 Z M 18.601562 18.601562 C 18.226562 18.601562 17.929688 18.902344 17.929688 19.269531 L 17.929688 20.609375 C 17.929688 20.980469 18.226562 21.28125 18.601562 21.28125 C 18.972656 21.28125 19.269531 20.980469 19.269531 20.609375 L 19.269531 19.269531 C 19.269531 18.902344 18.972656 18.601562 18.601562 18.601562 Z M 21.949219 18.601562 C 21.578125 18.601562 21.28125 18.902344 21.28125 19.269531 L 21.28125 20.609375 C 21.28125 20.980469 21.578125 21.28125 21.949219 21.28125 C 22.320312 21.28125 22.621094 20.980469 22.621094 20.609375 L 22.621094 19.269531 C 22.621094 18.902344 22.320312 18.601562 21.949219 18.601562 Z M 25.300781 18.601562 C 24.929688 18.601562 24.628906 18.902344 24.628906 19.269531 L 24.628906 20.609375 C 24.628906 20.980469 24.929688 21.28125 25.300781 21.28125 C 25.671875 21.28125 25.96875 20.980469 25.96875 20.609375 L 25.96875 19.269531 C 25.96875 18.902344 25.671875 18.601562 25.300781 18.601562 Z M 28.648438 18.601562 C 28.277344 18.601562 27.980469 18.902344 27.980469 19.269531 L 27.980469 20.609375 C 27.980469 20.980469 28.277344 21.28125 28.648438 21.28125 C 29.023438 21.28125 29.320312 20.980469 29.320312 20.609375 L 29.320312 19.269531 C 29.320312 18.902344 29.023438 18.601562 28.648438 18.601562 Z M 32 18.601562 C 31.628906 18.601562 31.328125 18.902344 31.328125 19.269531 L 31.328125 20.609375 C 31.328125 20.980469 31.628906 21.28125 32 21.28125 C 32.371094 21.28125 32.671875 20.980469 32.671875 20.609375 L 32.671875 19.269531 C 32.671875 18.902344 32.371094 18.601562 32 18.601562 Z M 35.351562 18.601562 C 34.976562 18.601562 34.679688 18.902344 34.679688 19.269531 L 34.679688 20.609375 C 34.679688 20.980469 34.976562 21.28125 35.351562 21.28125 C 35.722656 21.28125 36.019531 20.980469 36.019531 20.609375 L 36.019531 19.269531 C 36.019531 18.902344 35.722656 18.601562 35.351562 18.601562 Z M 38.699219 18.601562 C 38.328125 18.601562 38.03125 18.902344 38.03125 19.269531 L 38.03125 20.609375 C 38.03125 20.980469 38.328125 21.28125 38.699219 21.28125 C 39.070312 21.28125 39.371094 20.980469 39.371094 20.609375 L 39.371094 19.269531 C 39.371094 18.902344 39.070312 18.601562 38.699219 18.601562 Z M 42.050781 18.601562 C 41.679688 18.601562 41.378906 18.902344 41.378906 19.269531 L 41.378906 20.609375 C 41.378906 20.980469 41.679688 21.28125 42.050781 21.28125 C 42.421875 21.28125 42.71875 20.980469 42.71875 20.609375 L 42.71875 19.269531 C 42.71875 18.902344 42.421875 18.601562 42.050781 18.601562 Z M 45.398438 18.601562 C 45.027344 18.601562 44.730469 18.902344 44.730469 19.269531 L 44.730469 20.609375 C 44.730469 20.980469 45.027344 21.28125 45.398438 21.28125 C 45.773438 21.28125 46.070312 20.980469 46.070312 20.609375 L 46.070312 19.269531 C 46.070312 18.902344 45.773438 18.601562 45.398438 18.601562 Z M 23.625 22.621094 C 21.964844 22.621094 20.609375 23.972656 20.609375 25.636719 C 20.609375 27.296875 21.964844 28.648438 23.625 28.648438 C 25.285156 28.648438 26.640625 27.296875 26.640625 25.636719 C 26.640625 23.972656 25.285156 22.621094 23.625 22.621094 Z M 23.625 23.738281 C 24.667969 23.738281 25.519531 24.589844 25.519531 25.636719 C 25.519531 26.679688 24.667969 27.53125 23.625 27.53125 C 22.582031 27.53125 21.730469 26.679688 21.730469 25.636719 C 21.730469 24.589844 22.582031 23.738281 23.625 23.738281 Z M 37.277344 28.941406 C 35.722656 28.941406 34.496094 29.488281 33.628906 30.199219 L 33.628906 29.972656 C 33.628906 29.601562 33.332031 29.300781 32.960938 29.300781 L 28.648438 29.300781 C 28.28125 29.300781 27.980469 29.601562 27.980469 29.972656 L 27.980469 44.730469 C 27.980469 45.097656 28.28125 45.398438 28.648438 45.398438 L 33.140625 45.398438 C 33.511719 45.398438 33.8125 45.097656 33.8125 44.730469 L 33.8125 37.285156 C 33.8125 35.066406 34.359375 34.242188 35.839844 34.242188 C 37.261719 34.242188 37.503906 35.214844 37.503906 37.40625 L 37.503906 44.730469 C 37.503906 45.097656 37.800781 45.398438 38.175781 45.398438 L 42.667969 45.398438 C 43.039062 45.398438 43.335938 45.097656 43.335938 44.730469 L 43.335938 36.503906 C 43.339844 32.765625 42.621094 28.941406 37.277344 28.941406 Z M 21.28125 29.320312 C 20.910156 29.320312 20.609375 29.621094 20.609375 29.988281 L 20.609375 44.730469 C 20.609375 45.097656 20.910156 45.398438 21.28125 45.398438 L 25.96875 45.398438 C 26.339844 45.398438 26.640625 45.097656 26.640625 44.730469 L 26.640625 29.988281 C 26.640625 29.621094 26.339844 29.320312 25.96875 29.320312 Z M 37.277344 30.28125 C 41.210938 30.28125 42 32.664062 42 36.503906 L 42 44.058594 L 38.84375 44.058594 L 38.84375 37.402344 C 38.84375 35.828125 38.84375 32.898438 35.839844 32.898438 C 32.472656 32.898438 32.472656 36.199219 32.472656 37.285156 L 32.472656 44.058594 L 29.320312 44.058594 L 29.320312 30.640625 L 32.292969 30.640625 L 32.292969 31.949219 C 32.292969 32.320312 32.652344 32.621094 33.023438 32.621094 C 33.273438 32.621094 33.5 32.480469 33.613281 32.261719 C 34.097656 31.347656 35.34375 30.28125 37.277344 30.28125 Z M 21.949219 30.660156 L 25.300781 30.660156 L 25.300781 44.058594 L 21.949219 44.058594 Z M 21.949219 30.660156 "/>
</g>
</svg>
